<svg width="21" height="20" viewBox="0 0 21 20" fill="none" xmlns="http://www.w3.org/2000/svg">
<path d="M10.5 1.90475C6.03637 1.90475 2.40476 5.53636 2.40476 9.99999C2.40476 14.4636 6.03637 18.0952 10.5 18.0952C14.9636 18.0952 18.5952 14.4636 18.5952 9.99999C18.5952 5.53636 14.9636 1.90475 10.5 1.90475ZM10.5 17.0833C6.59418 17.0833 3.41667 13.9058 3.41667 9.99999C3.41667 6.09417 6.59418 2.91666 10.5 2.91666C14.4058 2.91666 17.5833 6.09417 17.5833 9.99999C17.5833 13.9058 14.4058 17.0833 10.5 17.0833Z" fill="#696969"/>
<path d="M11.0124 4.7619H10.0238V10.1048L13.1344 13.3333L13.8333 12.6079L11.0124 9.6799V4.7619Z" fill="#696969"/>
</svg>
