<svg width="25" height="24" viewBox="0 0 25 24" fill="none" xmlns="http://www.w3.org/2000/svg">
<path d="M20.5 17.0002V11.4522C20.5 10.9179 20.4995 10.6506 20.4346 10.4019C20.377 10.1816 20.2825 9.97307 20.1546 9.78464C20.0102 9.57201 19.8096 9.39569 19.4074 9.04383L14.6074 4.84383C13.8608 4.19054 13.4875 3.86406 13.0674 3.73982C12.6972 3.63035 12.3026 3.63035 11.9324 3.73982C11.5126 3.86397 11.1398 4.19014 10.3944 4.84244L5.59277 9.04383C5.19064 9.39569 4.99004 9.57201 4.8457 9.78464C4.71779 9.97307 4.62255 10.1816 4.56497 10.4019C4.5 10.6506 4.5 10.9179 4.5 11.4522V17.0002C4.5 17.932 4.5 18.3978 4.65224 18.7654C4.85523 19.2554 5.24432 19.6452 5.73438 19.8482C6.10192 20.0005 6.56786 20.0005 7.49974 20.0005C8.43163 20.0005 8.89808 20.0005 9.26562 19.8482C9.75568 19.6452 10.1447 19.2555 10.3477 18.7654C10.4999 18.3979 10.5 17.932 10.5 17.0001V16.0001C10.5 14.8955 11.3954 14.0001 12.5 14.0001C13.6046 14.0001 14.5 14.8955 14.5 16.0001V17.0001C14.5 17.932 14.5 18.3979 14.6522 18.7654C14.8552 19.2555 15.2443 19.6452 15.7344 19.8482C16.1019 20.0005 16.5679 20.0005 17.4997 20.0005C18.4316 20.0005 18.8981 20.0005 19.2656 19.8482C19.7557 19.6452 20.1447 19.2554 20.3477 18.7654C20.4999 18.3978 20.5 17.932 20.5 17.0002Z" stroke="white" stroke-width="2" stroke-linecap="round" stroke-linejoin="round"/>
</svg>
