<svg width="18" height="18" viewBox="0 0 18 18" fill="none" xmlns="http://www.w3.org/2000/svg">
<path fill-rule="evenodd" clip-rule="evenodd" d="M7.74325 15.0795C8.13175 15.5123 8.6305 15.75 9.148 15.75H9.14875C9.6685 15.75 10.1695 15.5122 10.5587 15.0787C10.7672 14.8485 11.1227 14.8297 11.353 15.0375C11.584 15.2452 11.6027 15.6015 11.395 15.8317C10.789 16.5045 9.99175 16.875 9.14875 16.875H9.14725C8.3065 16.8743 7.51075 16.5037 6.907 15.831C6.69925 15.6007 6.718 15.2445 6.949 15.0375C7.18 14.829 7.5355 14.8478 7.74325 15.0795ZM9.18535 0.75C12.5191 0.75 14.7586 3.3465 14.7586 5.77125C14.7586 7.0185 15.0758 7.54725 15.4126 8.10825C15.7456 8.66175 16.1228 9.29025 16.1228 10.4782C15.8611 13.5135 12.6923 13.761 9.18535 13.761C5.67835 13.761 2.50885 13.5135 2.25009 10.5262C2.24785 9.29025 2.6251 8.66175 2.9581 8.10825L3.07565 7.91037C3.3651 7.41289 3.6121 6.87176 3.6121 5.77125C3.6121 3.3465 5.8516 0.75 9.18535 0.75ZM9.18535 1.875C6.5641 1.875 4.7371 3.9285 4.7371 5.77125C4.7371 7.3305 4.30435 8.05125 3.92185 8.68725C3.6151 9.198 3.37285 9.6015 3.37285 10.4782C3.4981 11.8927 4.43185 12.636 9.18535 12.636C13.9126 12.636 14.8756 11.8597 15.0001 10.4295C14.9978 9.6015 14.7556 9.198 14.4488 8.68725C14.0663 8.05125 13.6336 7.3305 13.6336 5.77125C13.6336 3.9285 11.8066 1.875 9.18535 1.875Z" fill="#141414"/>
</svg>
