<svg width="24" height="24" viewBox="0 0 24 24" fill="none" xmlns="http://www.w3.org/2000/svg">
<path d="M3 19C2.71667 19 2.479 18.904 2.287 18.712C2.095 18.52 1.99933 18.2827 2 18C2 17.7167 2.096 17.479 2.288 17.287C2.48 17.095 2.71733 16.9993 3 17H21C21.2833 17 21.521 17.096 21.713 17.288C21.905 17.48 22.0007 17.7173 22 18C22 18.2833 21.904 18.521 21.712 18.713C21.52 18.905 21.2827 19.0007 21 19H3ZM2.5 12.575C2.31667 12.475 2.2 12.325 2.15 12.125C2.1 11.925 2.125 11.7333 2.225 11.55L2.7 10.7H1.75C1.53333 10.7 1.35433 10.6293 1.213 10.488C1.07167 10.3467 1.00067 10.1673 1 9.95C1 9.73333 1.071 9.55433 1.213 9.413C1.355 9.27167 1.534 9.20067 1.75 9.2H2.7L2.225 8.4C2.125 8.21667 2.1 8.025 2.15 7.825C2.2 7.625 2.31667 7.475 2.5 7.375C2.68333 7.275 2.875 7.25 3.075 7.3C3.275 7.35 3.425 7.46667 3.525 7.65L4 8.45L4.475 7.65C4.575 7.46667 4.725 7.35 4.925 7.3C5.125 7.25 5.31667 7.275 5.5 7.375C5.68333 7.475 5.8 7.625 5.85 7.825C5.9 8.025 5.875 8.21667 5.775 8.4L5.3 9.2H6.25C6.46667 9.2 6.64567 9.271 6.787 9.413C6.92833 9.555 6.99933 9.734 7 9.95C7 10.1667 6.929 10.346 6.787 10.488C6.645 10.63 6.466 10.7007 6.25 10.7H5.3L5.775 11.55C5.875 11.7333 5.9 11.925 5.85 12.125C5.8 12.325 5.68333 12.475 5.5 12.575C5.31667 12.675 5.125 12.7 4.925 12.65C4.725 12.6 4.575 12.4833 4.475 12.3L4 11.45L3.525 12.3C3.425 12.4833 3.275 12.6 3.075 12.65C2.875 12.7 2.68333 12.675 2.5 12.575ZM10.5 12.575C10.3167 12.475 10.2 12.325 10.15 12.125C10.1 11.925 10.125 11.7333 10.225 11.55L10.7 10.7H9.75C9.53333 10.7 9.35433 10.6293 9.213 10.488C9.07167 10.3467 9.00067 10.1673 9 9.95C9 9.73333 9.071 9.55433 9.213 9.413C9.355 9.27167 9.534 9.20067 9.75 9.2H10.7L10.225 8.4C10.125 8.21667 10.1 8.025 10.15 7.825C10.2 7.625 10.3167 7.475 10.5 7.375C10.6833 7.275 10.875 7.25 11.075 7.3C11.275 7.35 11.425 7.46667 11.525 7.65L12 8.45L12.475 7.65C12.575 7.46667 12.725 7.35 12.925 7.3C13.125 7.25 13.3167 7.275 13.5 7.375C13.6833 7.475 13.8 7.625 13.85 7.825C13.9 8.025 13.875 8.21667 13.775 8.4L13.3 9.2H14.25C14.4667 9.2 14.6457 9.271 14.787 9.413C14.9283 9.555 14.9993 9.734 15 9.95C15 10.1667 14.929 10.346 14.787 10.488C14.645 10.63 14.466 10.7007 14.25 10.7H13.3L13.775 11.55C13.875 11.7333 13.9 11.925 13.85 12.125C13.8 12.325 13.6833 12.475 13.5 12.575C13.3167 12.675 13.125 12.7 12.925 12.65C12.725 12.6 12.575 12.4833 12.475 12.3L12 11.45L11.525 12.3C11.425 12.4833 11.275 12.6 11.075 12.65C10.875 12.7 10.6833 12.675 10.5 12.575ZM18.5 12.575C18.3167 12.475 18.2 12.325 18.15 12.125C18.1 11.925 18.125 11.7333 18.225 11.55L18.7 10.7H17.75C17.5333 10.7 17.3543 10.6293 17.213 10.488C17.0717 10.3467 17.0007 10.1673 17 9.95C17 9.73333 17.071 9.55433 17.213 9.413C17.355 9.27167 17.534 9.20067 17.75 9.2H18.7L18.225 8.4C18.125 8.21667 18.1 8.025 18.15 7.825C18.2 7.625 18.3167 7.475 18.5 7.375C18.6833 7.275 18.875 7.25 19.075 7.3C19.275 7.35 19.425 7.46667 19.525 7.65L20 8.45L20.475 7.65C20.575 7.46667 20.725 7.35 20.925 7.3C21.125 7.25 21.3167 7.275 21.5 7.375C21.6833 7.475 21.8 7.625 21.85 7.825C21.9 8.025 21.875 8.21667 21.775 8.4L21.3 9.2H22.25C22.4667 9.2 22.6457 9.271 22.787 9.413C22.9283 9.555 22.9993 9.734 23 9.95C23 10.1667 22.929 10.346 22.787 10.488C22.645 10.63 22.466 10.7007 22.25 10.7H21.3L21.775 11.55C21.875 11.7333 21.9 11.925 21.85 12.125C21.8 12.325 21.6833 12.475 21.5 12.575C21.3167 12.675 21.125 12.7 20.925 12.65C20.725 12.6 20.575 12.4833 20.475 12.3L20 11.45L19.525 12.3C19.425 12.4833 19.275 12.6 19.075 12.65C18.875 12.7 18.6833 12.675 18.5 12.575Z" fill="url(#paint0_linear_1_210)"/>
<defs>
<linearGradient id="paint0_linear_1_210" x1="15.9021" y1="36.4654" x2="4.96188" y2="31.9238" gradientUnits="userSpaceOnUse">
<stop stop-color="#EFA058"/>
<stop offset="1" stop-color="#EF5858"/>
</linearGradient>
</defs>
</svg>
