<svg width="21" height="20" viewBox="0 0 21 20" fill="none" xmlns="http://www.w3.org/2000/svg">
<path d="M13.6296 1.66667C16.8251 1.66667 18.8333 3.66022 18.8333 6.87775V9.01789C18.8333 9.18633 18.7659 9.34778 18.6461 9.4662C18.5263 9.58462 18.3641 9.65016 18.1957 9.6482V9.63354C17.8435 9.63354 17.558 9.34806 17.558 8.9959V6.87775C17.558 4.33451 16.1655 2.94196 13.6296 2.94196H7.37774C4.84183 2.94196 3.44195 4.34184 3.44195 6.87775V13.1296C3.44195 15.6582 4.84183 17.058 7.37774 17.058H13.6296C16.1655 17.058 17.558 15.6582 17.558 13.1296C17.558 12.7774 17.8435 12.4919 18.1957 12.4919C18.5478 12.4919 18.8333 12.7774 18.8333 13.1296C18.8333 16.3398 16.8398 18.3333 13.6296 18.3333H7.37774C4.16021 18.3333 2.16666 16.3398 2.16666 13.1296V6.87775C2.16666 3.66022 4.16021 1.66667 7.37774 1.66667H13.6296ZM10.5586 11.3706C10.7284 11.3743 10.8896 11.4465 11.0055 11.5707C11.1214 11.6948 11.1822 11.8605 11.1743 12.0302V12.8364L11.1629 12.9365C11.1374 13.0678 11.0711 13.1886 10.9721 13.281C10.8484 13.3964 10.6838 13.458 10.5147 13.4521C10.1642 13.4362 9.89067 13.1432 9.899 12.7924V11.9862C9.90473 11.8171 9.97747 11.6571 10.1012 11.5417C10.2249 11.4262 10.3895 11.3646 10.5586 11.3706ZM10.5293 6.54061C10.6003 6.54059 10.67 6.55253 10.7357 6.57531C10.9981 6.65433 11.1889 6.89767 11.1889 7.18558L11.1883 9.17834L13.3584 9.17913C13.4315 9.17827 13.5034 9.19013 13.5711 9.21349C13.6699 9.24362 13.7615 9.29827 13.836 9.37366C13.9544 9.49345 14.02 9.65567 14.0181 9.8241C14.0181 10.1706 13.7415 10.4538 13.395 10.4617H7.71489C7.65522 10.4604 7.5976 10.451 7.54305 10.4345C7.26429 10.3651 7.05857 10.1151 7.05522 9.81677C7.0533 9.64834 7.11884 9.48612 7.23726 9.36633C7.35568 9.24653 7.51713 9.17912 7.68557 9.17913H9.88434V7.17825C9.89222 6.82656 10.1776 6.54447 10.5293 6.54061Z" fill="#696969"/>
</svg>
