<svg width="20" height="20" viewBox="0 0 20 20" fill="none" xmlns="http://www.w3.org/2000/svg">
<path fill-rule="evenodd" clip-rule="evenodd" d="M9.34184 11.5503L12.3893 16.4945C12.5227 16.7111 12.731 16.7086 12.8152 16.697C12.8993 16.6853 13.1018 16.6336 13.1752 16.3878L16.986 3.51697C17.0527 3.28947 16.9302 3.13447 16.8752 3.07947C16.8218 3.02447 16.6693 2.90697 16.4485 2.96947L3.56851 6.74113C3.32434 6.8128 3.27101 7.0178 3.25934 7.10197C3.24767 7.1878 3.24434 7.4003 3.46017 7.53613L8.46101 10.6636L12.8793 6.19863C13.1218 5.95363 13.5177 5.95113 13.7635 6.19363C14.0093 6.43613 14.011 6.8328 13.7685 7.0778L9.34184 11.5503ZM12.7502 17.952C12.1702 17.952 11.6385 17.657 11.3252 17.1503L8.09434 11.9078L2.79767 8.5953C2.22684 8.2378 1.92851 7.60113 2.02101 6.93197C2.11267 6.2628 2.57184 5.73113 3.21684 5.54197L16.0968 1.7703C16.6893 1.59697 17.3243 1.76113 17.761 2.19613C18.1977 2.6353 18.3602 3.27697 18.1835 3.87197L14.3727 16.742C14.1818 17.3895 13.6485 17.847 12.981 17.9361C12.9027 17.9461 12.8268 17.952 12.7502 17.952Z" fill="#696969"/>
</svg>
