<svg width="24" height="24" viewBox="0 0 24 24" fill="none" xmlns="http://www.w3.org/2000/svg">
<path d="M8 4C7.71667 4 7.479 3.904 7.287 3.712C7.095 3.52 6.99933 3.28267 7 3C7 2.71667 7.096 2.479 7.288 2.287C7.48 2.095 7.71733 1.99933 8 2H16C16.2833 2 16.521 2.096 16.713 2.288C16.905 2.48 17.0007 2.71733 17 3C17 3.28333 16.904 3.521 16.712 3.713C16.52 3.905 16.2827 4.00067 16 4H8ZM5 7C4.71667 7 4.479 6.904 4.287 6.712C4.095 6.52 3.99933 6.28267 4 6C4 5.71667 4.096 5.479 4.288 5.287C4.48 5.095 4.71733 4.99933 5 5H19C19.2833 5 19.521 5.096 19.713 5.288C19.905 5.48 20.0007 5.71733 20 6C20 6.28333 19.904 6.521 19.712 6.713C19.52 6.905 19.2827 7.00067 19 7H5ZM4 22C3.45 22 2.979 21.804 2.587 21.412C2.195 21.02 1.99933 20.5493 2 20V10C2 9.45 2.196 8.979 2.588 8.587C2.98 8.195 3.45067 7.99933 4 8H20C20.55 8 21.021 8.196 21.413 8.588C21.805 8.98 22.0007 9.45067 22 10V20C22 20.55 21.804 21.021 21.412 21.413C21.02 21.805 20.5493 22.0007 20 22H4ZM4 20H20V10H4V20ZM11.55 17.975L14.75 15.825C15.05 15.625 15.2 15.35 15.2 15C15.2 14.65 15.05 14.375 14.75 14.175L11.55 12.025C11.2167 11.7917 10.875 11.775 10.525 11.975C10.175 12.175 10 12.475 10 12.875V17.125C10 17.525 10.175 17.825 10.525 18.025C10.875 18.225 11.2167 18.2083 11.55 17.975Z" fill="url(#paint0_linear_1_193)"/>
<defs>
<linearGradient id="paint0_linear_1_193" x1="15.5474" y1="51.7917" x2="4.43188" y2="49.3325" gradientUnits="userSpaceOnUse">
<stop stop-color="#EFA058"/>
<stop offset="1" stop-color="#EF5858"/>
</linearGradient>
</defs>
</svg>
